<?xml version="1.0" encoding="UTF-8"?>
<svg xmlns="http://www.w3.org/2000/svg" xmlns:xlink="http://www.w3.org/1999/xlink" width="459.53pt" height="417.07pt" viewBox="0 0 459.53 417.07" version="1.1">
<defs>
<clipPath id="clip1">
  <path d="M 0 0 L 459.53125 0 L 459.53125 298 L 0 298 Z M 0 0 "/>
</clipPath>
<clipPath id="clip2">
  <path d="M 96 340 L 174 340 L 174 417.070313 L 96 417.070313 Z M 96 340 "/>
</clipPath>
<clipPath id="clip3">
  <path d="M 337 339 L 415 339 L 415 417.070313 L 337 417.070313 Z M 337 339 "/>
</clipPath>
</defs>
<g id="surface1">
<g clip-path="url(#clip1)" clip-rule="nonzero">
<path style=" stroke:none;fill-rule:nonzero;fill:rgb(12.199402%,72.499084%,3.49884%);fill-opacity:1;" d="M 17 34.003906 L 65.734375 34.003906 L 135.148438 285.035156 C 137.132813 292.402344 143.933594 297.503906 151.582031 297.503906 L 364.933594 297.503906 C 371.734375 297.503906 377.683594 293.535156 380.515625 287.304688 L 458.148438 108.804688 C 460.414063 103.421875 459.847656 97.46875 456.730469 92.652344 C 453.613281 87.835938 448.230469 85.003906 442.566406 85.003906 L 206.832031 85.003906 C 197.484375 85.003906 189.832031 92.652344 189.832031 102.003906 C 189.832031 111.351563 197.484375 119.003906 206.832031 119.003906 L 416.5 119.003906 L 353.601563 263.503906 L 164.332031 263.503906 L 94.917969 12.46875 C 92.933594 5.101563 86.132813 0.00390625 78.484375 0.00390625 L 17 0.00390625 C 7.648438 0.00390625 0 7.652344 0 17.003906 C 0 26.351563 7.648438 34.003906 17 34.003906 "/>
</g>
<g clip-path="url(#clip2)" clip-rule="nonzero">
<path style=" stroke:none;fill-rule:nonzero;fill:rgb(12.199402%,72.499084%,3.49884%);fill-opacity:1;" d="M 135.433594 417.070313 C 156.683594 417.070313 173.964844 399.789063 173.964844 378.539063 C 173.964844 357.289063 156.683594 340.003906 135.433594 340.003906 C 114.183594 340.003906 96.898438 357.285156 96.898438 378.535156 C 96.898438 399.785156 114.183594 417.070313 135.433594 417.070313 "/>
</g>
<g clip-path="url(#clip3)" clip-rule="nonzero">
<path style=" stroke:none;fill-rule:nonzero;fill:rgb(12.199402%,72.499084%,3.49884%);fill-opacity:1;" d="M 376.265625 417.070313 L 379.101563 417.070313 C 389.300781 416.21875 398.652344 411.6875 405.449219 403.753906 C 412.25 396.101563 415.367188 386.1875 414.800781 375.703125 C 413.382813 354.734375 394.96875 338.585938 373.71875 340.003906 C 352.46875 341.421875 336.601563 360.121094 338.015625 381.085938 C 339.433594 401.203125 356.152344 417.070313 376.265625 417.070313 "/>
</g>
</g>
</svg>
