<?xml version="1.0" encoding="UTF-8"?>
<svg xmlns="http://www.w3.org/2000/svg" xmlns:xlink="http://www.w3.org/1999/xlink" width="32pt" height="32pt" viewBox="0 0 32 32" version="1.1">
<g id="surface1">
<path style=" stroke:none;fill-rule:nonzero;fill:rgb(12.199402%,72.499084%,3.49884%);fill-opacity:1;" d="M 24 17 C 23.445313 17 23 17.449219 23 18 C 23 18.554688 23.445313 19 24 19 C 27.417969 19 30 21.851563 30 25.269531 C 30 25.382813 29.980469 25.492188 29.933594 25.59375 C 29.707031 26.101563 29.9375 26.6875 30.441406 26.914063 C 30.570313 26.972656 30.710938 27 30.847656 27 C 31.230469 27 31.59375 26.777344 31.761719 26.40625 C 31.917969 26.046875 32 25.664063 32 25.265625 C 32 20.746094 28.519531 17 24 17 M 15.230469 2.640625 C 15.945313 2.214844 16.710938 2 17.5 2 C 20.53125 2 23 5.199219 23 9.125 C 23 9.832031 22.921875 10.519531 22.769531 11.183594 C 22.640625 11.71875 22.976563 12.257813 23.511719 12.382813 C 23.589844 12.402344 23.664063 12.410156 23.742188 12.410156 C 24.195313 12.410156 24.605469 12.097656 24.714844 11.640625 C 24.902344 10.828125 25 9.984375 25 9.125 C 25 4.09375 21.636719 0 17.5 0 C 16.363281 0 15.226563 0.316406 14.214844 0.917969 C 13.738281 1.199219 13.582031 1.8125 13.863281 2.285156 C 14.144531 2.761719 14.757813 2.921875 15.230469 2.640625 M 20.796875 21 C 20.246094 21 19.796875 21.449219 19.796875 22 C 19.796875 22.554688 20.246094 23 20.796875 23 C 24.21875 23 27 25.78125 27 29.203125 C 27 29.640625 26.640625 30 26.199219 30 L 2.800781 30 C 2.359375 30 2 29.644531 2 29.203125 C 2 25.78125 4.78125 23 8.199219 23 C 8.75 23 9.199219 22.554688 9.199219 22 C 9.199219 21.449219 8.75 21 8.199219 21 C 3.679688 21 0 24.679688 0 29.203125 C 0 30.746094 1.257813 32 2.800781 32 L 26.199219 32 C 27.742188 32 29 30.746094 29 29.203125 C 29 24.679688 25.320313 21 20.796875 21 M 14.5 5.75 C 17.53125 5.75 20 8.945313 20 12.875 C 20 16.804688 17.53125 20 14.5 20 C 11.46875 20 9 16.804688 9 12.875 C 9 8.945313 11.464844 5.75 14.5 5.75 M 14.5 22 C 18.636719 22 22 17.90625 22 12.875 C 22 7.84375 18.636719 3.75 14.5 3.75 C 12.453125 3.75 10.542969 4.730469 9.121094 6.503906 C 7.753906 8.21875 7 10.480469 7 12.875 C 7 17.90625 10.363281 22 14.5 22 "/>
</g>
</svg>
